<svg xmlns="http://www.w3.org/2000/svg" width="1200" height="300" viewBox="0 0 1200 300" role="img" aria-labelledby="title desc">
  <title id="title">Zixuan Wei — AI Agent Engineering</title>
  <desc id="desc">Controlled workflows and verifiable execution.</desc>
  <defs><linearGradient id="bg" x2="1" y2="1"><stop stop-color="#101b30"/><stop offset="1" stop-color="#0b1220"/></linearGradient><linearGradient id="accent"><stop stop-color="#62e5c0"/><stop offset="1" stop-color="#65a9ff"/></linearGradient><pattern id="dots" width="24" height="24" patternUnits="userSpaceOnUse"><circle cx="2" cy="2" r="1" fill="#29394b"/></pattern></defs>
  <rect width="1200" height="300" rx="22" fill="url(#bg)"/><rect x="680" width="498" height="300" fill="url(#dots)" opacity=".7"/>
  <rect x="48" y="48" width="35" height="4" rx="2" fill="url(#accent)"/>
  <g font-family="Arial,sans-serif"><text x="97" y="55" fill="#83a1bc" font-size="15" letter-spacing="3">AI AGENT ENGINEERING</text><text x="48" y="127" fill="#f3f7fc" font-weight="700" font-size="60" letter-spacing="-1">ZIXUAN WEI</text><text x="50" y="168" fill="#b7c8da" font-size="21">Controlled workflows. Verifiable execution.</text></g>
  <g font-family="Arial,sans-serif" font-size="13"><rect x="48" y="213" width="107" height="33" rx="16" fill="#163631"/><text x="68" y="234" fill="#79e5c4">WORKFLOW</text><rect x="168" y="213" width="75" height="33" rx="16" fill="#182d48"/><text x="191" y="234" fill="#96c2fa">MCP</text><rect x="256" y="213" width="128" height="33" rx="16" fill="#242c47"/><text x="275" y="234" fill="#b9c4f2">TRACE REPLAY</text><text x="410" y="234" fill="#728da6">@siye566</text></g>
  <g fill="none" stroke="#324b64" stroke-width="2"><path d="M836 93h64v115h-64"/><path d="M1024 93h54v115h-54"/><path d="M836 208h72"/></g>
  <g font-family="Arial,sans-serif" font-size="15"><rect x="712" y="67" width="124" height="52" rx="10" fill="#142d31" stroke="#39796c"/><text x="742" y="99" fill="#87e2c9">INTENT</text><rect x="900" y="67" width="124" height="52" rx="10" fill="#182b45" stroke="#3c658b"/><text x="934" y="99" fill="#94bfe9">STATE</text><rect x="908" y="182" width="170" height="52" rx="10" fill="#182b45" stroke="#3c658b"/><text x="929" y="214" fill="#94bfe9">TOOL CONTRACT</text><rect x="674" y="182" width="162" height="52" rx="10" fill="#142d31" stroke="#39796c"/><text x="698" y="214" fill="#87e2c9">EVIDENCE</text></g>
  <circle cx="900" cy="145" r="4" fill="#85b8ec"/><circle cx="1078" cy="146" r="4" fill="#85b8ec"/>
</svg>
